<?xml version="1.0" encoding="UTF-8" standalone="no"?>
<!-- Created with Inkscape (http://www.inkscape.org/) -->

<svg
   xmlns:dc="http://purl.org/dc/elements/1.1/"
   xmlns:cc="http://creativecommons.org/ns#"
   xmlns:rdf="http://www.w3.org/1999/02/22-rdf-syntax-ns#"
   xmlns:svg="http://www.w3.org/2000/svg"
   xmlns="http://www.w3.org/2000/svg"
   xmlns:sodipodi="http://sodipodi.sourceforge.net/DTD/sodipodi-0.dtd"
   xmlns:inkscape="http://www.inkscape.org/namespaces/inkscape"
   width="256"
   height="36"
   id="svg2"
   version="1.1"
   inkscape:version="0.48.4 r9939"
   sodipodi:docname="Novo documento 1">
  <defs
     id="defs4" />
  <sodipodi:namedview
     id="base"
     pagecolor="#ffffff"
     bordercolor="#666666"
     borderopacity="1.0"
     inkscape:pageopacity="0.0"
     inkscape:pageshadow="2"
     inkscape:zoom="1"
     inkscape:cx="99.317395"
     inkscape:cy="-130.04276"
     inkscape:document-units="px"
     inkscape:current-layer="layer1"
     showgrid="false"
     showguides="true"
     inkscape:guide-bbox="true"
     inkscape:snap-bbox="true"
     inkscape:bbox-paths="true"
     inkscape:bbox-nodes="true"
     inkscape:snap-bbox-edge-midpoints="true"
     inkscape:snap-bbox-midpoints="true"
     fit-margin-top="0"
     fit-margin-left="0"
     fit-margin-right="0"
     fit-margin-bottom="0"
     inkscape:window-width="1440"
     inkscape:window-height="876"
     inkscape:window-x="0"
     inkscape:window-y="24"
     inkscape:window-maximized="1" />
  <metadata
     id="metadata7">
    <rdf:RDF>
      <cc:Work
         rdf:about="">
        <dc:format>image/svg+xml</dc:format>
        <dc:type
           rdf:resource="http://purl.org/dc/dcmitype/StillImage" />
        <dc:title></dc:title>
      </cc:Work>
    </rdf:RDF>
  </metadata>
  <g
     inkscape:label="Camada 1"
     inkscape:groupmode="layer"
     id="layer1"
     transform="translate(-110.28,-89.922179)">
    <g
       style="font-size:40px;font-style:normal;font-weight:normal;line-height:125%;letter-spacing:0px;word-spacing:0px;fill:#e60014;fill-opacity:1;stroke:none;font-family:Sans"
       id="text3050"
       transform="matrix(0.87121315,0,0,0.86124411,14.202613,17.472443)">
      <g
         id="g3863">
        <path
           id="path3823"
           style="font-variant:normal;font-weight:bold;font-stretch:normal;text-align:start;line-height:125%;letter-spacing:-1.5px;writing-mode:lr-tb;text-anchor:start;font-family:Helvetica Neue LT Std;-inkscape-font-specification:Helvetica Neue LT Std Bold"
           d="m 124.04,108.36218 c 0,1.24 -0.16,4.76 -4.6,4.76 -1.84,0 -3.48,-0.52 -3.48,-2.64 0,-2.08 1.6,-2.68 3.36,-3.04 1.76,-0.32 3.76,-0.36 4.72,-1.2 l 0,2.12 m -7.44,-6.32 c 0.2,-2.239995 1.6,-3.119997 3.76,-3.119997 2,0 3.68,0.360002 3.68,2.799997 0,2.32 -3.24,2.2 -6.72,2.72 -3.52,0.48 -7.04,1.60001 -7.04,6.28 0,4.24 3.12,6.2 7.04,6.2 2.52,0 5.16,-0.68 6.96,-2.56 0.04,0.68 0.2,1.36 0.4,2 l 5.76,0 c -0.52,-0.84 -0.72,-2.72 -0.72,-4.6 l 0,-10.76 c 0,-4.959992 -4.96,-5.879997 -9.08,-5.879997 -4.64,0 -9.4,1.600005 -9.72,6.919997 l 5.68,0"
           inkscape:connector-curvature="0" />
        <path
           id="path3825"
           style="font-variant:normal;font-weight:bold;font-stretch:normal;text-align:start;line-height:125%;letter-spacing:-1.5px;writing-mode:lr-tb;text-anchor:start;font-family:Helvetica Neue LT Std;-inkscape-font-specification:Helvetica Neue LT Std Bold"
           d="m 132.78875,116.36218 5.68,0 0,-12 c 0,-4.03999 2.72,-4.759997 3.84,-4.759997 3.6,0 3.44,2.760007 3.44,5.159997 l 0,11.6 5.68,0 0,-11.52 c 0,-2.59999 0.6,-5.239997 3.8,-5.239997 3.24,0 3.48,2.280007 3.48,5.039997 l 0,11.72 5.68,0 0,-13.84 c 0,-5.359992 -3.16,-7.399997 -7.56,-7.399997 -2.88,0 -5.04,1.640001 -6.24,3.44 -1.12,-2.479998 -3.44,-3.44 -6.04,-3.44 -2.68,0 -4.84,1.240002 -6.32,3.36 l -0.08,0 0,-2.8 -5.36,0 0,20.679997"
           inkscape:connector-curvature="0" />
        <path
           id="path3827"
           style="font-variant:normal;font-weight:bold;font-stretch:normal;text-align:start;line-height:125%;letter-spacing:-1.5px;writing-mode:lr-tb;text-anchor:start;font-family:Helvetica Neue LT Std;-inkscape-font-specification:Helvetica Neue LT Std Bold"
           d="m 186.97875,107.40218 c 0.4,-6.35999 -3.00001,-12.279997 -10.04,-12.279997 -6.27999,0 -10.56,4.720006 -10.56,10.919997 0,6.4 4.04001,10.88 10.56,10.88 4.68,0 8.08,-2.08 9.68,-6.96 l -5,0 c -0.36,1.28 -2.2,2.68 -4.48,2.68 -3.16,0 -4.92,-1.64 -5.08,-5.24 l 14.92,0 m -14.92,-3.6 c 0.08,-1.6 1.12,-4.399997 4.72,-4.399997 2.76,0 4,1.520007 4.52,4.399997 l -9.24,0"
           inkscape:connector-curvature="0" />
        <path
           id="path3829"
           style="font-variant:normal;font-weight:bold;font-stretch:normal;text-align:start;line-height:125%;letter-spacing:-1.5px;writing-mode:lr-tb;text-anchor:start;font-family:Helvetica Neue LT Std;-inkscape-font-specification:Helvetica Neue LT Std Bold"
           d="m 188.8475,116.36218 5.68,0 0,-9.32 c 0,-3.63999 1.44,-6.64 5.6,-6.64 0.68,0 1.52,0.08 2.04,0.2 l 0,-5.279997 c -0.36,-0.12 -0.84,-0.2 -1.24,-0.2 -2.76,0 -5.56,1.800002 -6.6,4.4 l -0.08,0 0,-3.84 -5.4,0 0,20.679997"
           inkscape:connector-curvature="0" />
        <path
           id="path3853"
           d="m 204,116.36218 5.68,0 0,-21.25 -5.68,0 0,21.25"
           style="font-variant:normal;font-weight:bold;font-stretch:normal;text-align:start;line-height:125%;letter-spacing:-1.5px;writing-mode:lr-tb;text-anchor:start;font-family:Helvetica Neue LT Std;-inkscape-font-specification:Helvetica Neue LT Std Bold"
           inkscape:connector-curvature="0" />
        <path
           id="path3833"
           style="font-variant:normal;font-weight:bold;font-stretch:normal;text-align:start;line-height:125%;letter-spacing:-1.5px;writing-mode:lr-tb;text-anchor:start;font-family:Helvetica Neue LT Std;-inkscape-font-specification:Helvetica Neue LT Std Bold"
           d="m 231.34687,102.96218 c -0.35999,-5.279992 -4.84,-7.839997 -9.72,-7.839997 -6.71999,0 -10.56,4.760006 -10.56,11.199997 0,6.2 4.20001,10.6 10.44,10.6 5.44,0 9.24001,-3 9.96001,-8.48 l -5.48001,0 c -0.35999,2.52 -1.88,4.2 -4.52,4.2 -3.55999,0 -4.72,-3.56 -4.72,-6.52 0,-3.03999 1.20001,-6.719997 4.84,-6.719997 2.36,0 3.84001,1.239997 4.2,3.559997 l 5.56,0"
           inkscape:connector-curvature="0" />
        <path
           id="path3835"
           style="font-variant:normal;font-weight:bold;font-stretch:normal;text-align:start;line-height:125%;letter-spacing:-1.5px;writing-mode:lr-tb;text-anchor:start;font-family:Helvetica Neue LT Std;-inkscape-font-specification:Helvetica Neue LT Std Bold"
           d="m 246.05562,108.36218 c 0,1.24 -0.16,4.76 -4.6,4.76 -1.83999,0 -3.48,-0.52 -3.48,-2.64 0,-2.08 1.60001,-2.68 3.36,-3.04 1.76,-0.32 3.76001,-0.36 4.72,-1.2 l 0,2.12 m -7.44,-6.32 c 0.2,-2.239995 1.60001,-3.119997 3.76001,-3.119997 1.99999,0 3.67999,0.360002 3.67999,2.799997 0,2.32 -3.24,2.2 -6.72,2.72 -3.51999,0.48 -7.04,1.60001 -7.04,6.28 0,4.24 3.12001,6.2 7.04,6.2 2.52,0 5.16001,-0.68 6.96,-2.56 0.04,0.68 0.20001,1.36 0.4,2 l 5.76,0 c -0.51999,-0.84 -0.72,-2.72 -0.72,-4.6 l 0,-10.76 c 0,-4.959992 -4.96,-5.879997 -9.08,-5.879997 -4.63999,0 -9.4,1.600005 -9.72,6.919997 l 5.68,0"
           inkscape:connector-curvature="0" />
        <path
           id="path3837"
           style="font-variant:normal;font-weight:bold;font-stretch:normal;text-align:start;line-height:125%;letter-spacing:-1.5px;writing-mode:lr-tb;text-anchor:start;font-family:Helvetica Neue LT Std;-inkscape-font-specification:Helvetica Neue LT Std Bold"
           d="m 254.64437,116.36218 5.68,0 0,-10.84 c 0,-4.19999 1.32001,-5.919997 4.4,-5.919997 2.64,0 3.64,1.680007 3.64,5.079997 l 0,11.68 5.68,0 0,-12.72 c 0,-5.119992 -1.52,-8.519997 -7.56,-8.519997 -2.39999,0 -4.88,1.120002 -6.32,3.44 l -0.12,0 0,-2.88 -5.4,0 0,20.679997"
           inkscape:connector-curvature="0" />
        <path
           id="path3839"
           style="font-variant:normal;font-weight:bold;font-stretch:normal;text-align:start;line-height:125%;letter-spacing:-1.5px;writing-mode:lr-tb;text-anchor:start;font-family:Helvetica Neue LT Std;-inkscape-font-specification:Helvetica Neue LT Std Bold"
           d="m 289.77438,108.36218 c 0,1.24 -0.16001,4.76 -4.60001,4.76 -1.83999,0 -3.48,-0.52 -3.48,-2.64 0,-2.08 1.60001,-2.68 3.36,-3.04 1.76,-0.32 3.76001,-0.36 4.72001,-1.2 l 0,2.12 m -7.44,-6.32 c 0.19999,-2.239995 1.6,-3.119997 3.76,-3.119997 1.99999,0 3.68,0.360002 3.68,2.799997 0,2.32 -3.24001,2.2 -6.72001,2.72 -3.51999,0.48 -7.04,1.60001 -7.04,6.28 0,4.24 3.12001,6.2 7.04,6.2 2.52,0 5.16001,-0.68 6.96,-2.56 0.04,0.68 0.20001,1.36 0.4,2 l 5.76,0 c -0.51999,-0.84 -0.71999,-2.72 -0.71999,-4.6 l 0,-10.76 c 0,-4.959992 -4.96001,-5.879997 -9.08001,-5.879997 -4.63999,0 -9.4,1.600005 -9.71999,6.919997 l 5.68,0"
           inkscape:connector-curvature="0" />
        <path
           id="path3841"
           style="font-variant:normal;font-weight:bold;font-stretch:normal;text-align:start;line-height:125%;letter-spacing:-1.5px;writing-mode:lr-tb;text-anchor:start;font-family:Helvetica Neue LT Std;-inkscape-font-specification:Helvetica Neue LT Std Bold"
           d="m 297.36313,109.64218 c 0.23999,5.48 4.92,7.28 9.71999,7.28 4.72,0 9.44,-1.76 9.44,-7.2 0,-3.83999 -3.24,-5.04 -6.56,-5.8 -3.23999,-0.76 -6.44,-1.04 -6.44,-3.08 0,-1.679996 1.88001,-1.919997 3.16001,-1.919997 2.03999,0 3.72,0.600002 3.88,2.799997 l 5.39999,0 c -0.43999,-5.079992 -4.6,-6.599997 -9.12,-6.599997 -4.43999,0 -9,1.360005 -9,6.639997 0,3.64 3.28001,4.8 6.56,5.52 4.08,0.88 6.44,1.48 6.44,3.2 0,2 -2.08,2.64 -3.71999,2.64 -2.24,0 -4.32001,-1 -4.36001,-3.48 l -5.39999,0"
           inkscape:connector-curvature="0" />
      </g>
      <g
         id="g3857">
        <path
           id="path3845"
           style="font-variant:normal;font-weight:bold;font-stretch:normal;text-align:start;line-height:125%;letter-spacing:-1.5px;writing-mode:lr-tb;text-anchor:start;font-family:Helvetica Neue LT Std;-inkscape-font-specification:Helvetica Neue LT Std Bold"
           d="m 347.58125,102.96218 c -0.36,-5.279992 -4.84,-7.839997 -9.72,-7.839997 -6.71999,0 -10.56,4.760006 -10.56,11.199997 0,6.2 4.20001,10.6 10.44,10.6 5.43999,0 9.24,-3 9.96,-8.48 l -5.48,0 c -0.36,2.52 -1.88,4.2 -4.52,4.2 -3.56,0 -4.72,-3.56 -4.72,-6.52 0,-3.03999 1.2,-6.719997 4.84,-6.719997 2.36,0 3.84,1.239997 4.2,3.559997 l 5.56,0"
           inkscape:connector-curvature="0" />
        <path
           id="path3847"
           style="font-variant:normal;font-weight:bold;font-stretch:normal;text-align:start;line-height:125%;letter-spacing:-1.5px;writing-mode:lr-tb;text-anchor:start;font-family:Helvetica Neue LT Std;-inkscape-font-specification:Helvetica Neue LT Std Bold"
           d="m 348.77,106.04218 c 0,6.56 4.20001,10.88 10.68,10.88 6.51999,0 10.72,-4.32 10.72,-10.88 0,-6.599991 -4.20001,-10.919997 -10.72,-10.919997 -6.47999,0 -10.68,4.320006 -10.68,10.919997 m 5.68,0 c 0,-3.31999 1.16,-6.639997 5,-6.639997 3.88,0 5.04,3.320007 5.04,6.639997 0,3.28 -1.16,6.6 -5.04,6.6 -3.84,0 -5,-3.32 -5,-6.6"
           inkscape:connector-curvature="0" />
        <path
           id="path3849"
           style="font-variant:normal;font-weight:bold;font-stretch:normal;text-align:start;line-height:125%;letter-spacing:-1.5px;writing-mode:lr-tb;text-anchor:start;font-family:Helvetica Neue LT Std;-inkscape-font-specification:Helvetica Neue LT Std Bold"
           d="m 372.52312,116.36218 5.68,0 0,-12 c 0,-4.03999 2.72001,-4.759997 3.84,-4.759997 3.6,0 3.44,2.760007 3.44,5.159997 l 0,11.6 5.68,0 0,-11.52 c 0,-2.59999 0.60001,-5.239997 3.8,-5.239997 3.24,0 3.48,2.280007 3.48,5.039997 l 0,11.72 5.68001,0 0,-13.84 c 0,-5.359992 -3.16001,-7.399997 -7.56,-7.399997 -2.88,0 -5.04001,1.640001 -6.24001,3.44 -1.11999,-2.479998 -3.44,-3.44 -6.04,-3.44 -2.67999,0 -4.84,1.240002 -6.32,3.36 l -0.08,0 0,-2.8 -5.36,0 0,20.679997"
           inkscape:connector-curvature="0" />
        <path
           transform="matrix(0.68317391,0,0,0.64530042,98.425202,28.290209)"
           style="fill:#e60014;fill-opacity:1;stroke:none"
           d="m 331.4563,131.70915 c 0,2.63604 -2.05778,4.77297 -4.59619,4.77297 -2.53841,0 -4.5962,-2.13693 -4.5962,-4.77297 0,-2.63604 2.05779,-4.77297 4.5962,-4.77297 2.53841,0 4.59619,2.13693 4.59619,4.77297 z"
           id="path3893"
           inkscape:connector-curvature="0" />
      </g>
      <rect
         style="fill:#e60014;fill-opacity:1;stroke:none"
         id="rect3855"
         width="206.243"
         height="5"
         x="110.28012"
         y="84.122185" />
      <rect
         style="font-size:40px;font-style:normal;font-weight:normal;line-height:125%;letter-spacing:0px;word-spacing:0px;fill:#e60014;fill-opacity:1;stroke:none;font-family:Sans"
         id="rect3855-7"
         width="206.243"
         height="5"
         x="110.28012"
         y="120.92218" />
    </g>
  </g>
</svg>
