<?xml version="1.0" encoding="utf-8"?>
<!-- Generator: Adobe Illustrator 17.1.0, SVG Export Plug-In . SVG Version: 6.00 Build 0)  -->
<!DOCTYPE svg PUBLIC "-//W3C//DTD SVG 1.1//EN" "http://www.w3.org/Graphics/SVG/1.1/DTD/svg11.dtd">
<svg version="1.1" id="Camada_1" xmlns="http://www.w3.org/2000/svg" xmlns:xlink="http://www.w3.org/1999/xlink" x="0px" y="0px"
	 viewBox="0 0 1261.3 181.4" enable-background="new 0 0 1261.3 181.4" xml:space="preserve">
<g>
	<path fill="#168AFB" d="M322.9,123.7c-8.1,6.9-16.3,11.8-26.2,12.7c-29,2.5-48.4-14.1-51.4-44.1C242,60,264,35.1,294.6,36.4
		c11.2,0.5,20.1,4.6,28.4,12.4v-3.7c0-3.4,2.8-6.2,6.2-6.2l16,0c3.4,0,6.2,2.8,6.2,6.2c0,27.7,0.4,61.2-0.3,88.1
		c-0.5,20.3-13.7,38.2-33,44.5c-19.6,6.4-39,4.5-57.6-4c-7.1-3.2-7.7-5.7-4.4-12.8c0.9-1.9,1.9-3.8,2.8-5.7
		c2.3-5.2,5.7-6.8,11.1-4.5c5,2.2,10.3,3.8,15.8,4.4C310.6,158.1,323.7,147.5,322.9,123.7z M273.7,87.3c0,15.1,9.5,24.9,24.4,25
		c14.5,0.1,25.1-10.6,25.1-25.5c0-15.6-9.5-25.2-24.9-25.1C283.2,61.7,273.7,71.6,273.7,87.3z"/>
	<path fill="#168AFB" d="M73.6,111.6c-6.4,10.7-21.9,10.5-28-0.3c-4.7-8.3-15.2-29.5-15.2-29.5c-0.8,11.7-2.2,34.8-3.1,49.8
		c-0.2,3.9-3.4,6.9-7.3,6.9H7.3c-4.3,0-7.6-3.6-7.3-7.9C1.9,108,4.9,69.2,6.8,45.8c0.3-3.8,3.5-6.7,7.3-6.7h13.8
		c2.7,0,5.1,1.5,6.4,3.8c7.7,14.3,18.1,32.9,26,47.3c7.3-12.3,20.3-33.6,27.5-47.2c1.3-2.4,3.7-3.9,6.4-3.9h13.1
		c3.8,0,7,2.9,7.3,6.7c1.9,24.3,4.6,59.2,6.7,84.8c0.3,4.2-3,7.9-7.3,7.9h-13.5c-3.9,0-7.1-3-7.3-6.9c-0.8-14.6-2-40.7-2.5-49.8
		C90.8,81.7,78.8,102.9,73.6,111.6z"/>
	<path fill="#168AFB" d="M1234,127.1c-12.8,11.8-27.3,15.9-43.4,12.3c-20.4-4.5-33.4-21.7-35.6-46c-2.5-28.9,14-52.4,40.1-56.5
		c12.6-1.9,24.3,0.5,34.4,8.7c3,2.4,4.5,4.2,4.5,4.2V47c0-4.4,3.6-7.9,7.9-7.9c4.7,0,8.4,0,11.3,0c4.4,0,7.9,3.5,7.9,7.9
		c-0.1,22.9,0,60.5,0.1,83.4c0,4.4-3.5,7.9-7.9,7.9c-3.3,0-7.4,0-11.4,0c-4.4,0-7.9-3.5-7.9-7.9V127.1z M1208.2,115.4
		c14.9,0,25-11.1,24.9-27.1c-0.2-16.1-9.8-26.5-24.6-26.6c-15-0.1-25.1,10.7-25.2,26.9C1183.1,104.8,1192.9,115.4,1208.2,115.4z"/>
	<path fill="#168AFB" d="M751.2,96.2c0,0,0,3.2,2.4,7.3c6,10.5,20.6,15.5,34.7,10.7c4-1.3,7.8-3.3,11.4-5.5
		c4.1-2.5,7.3-1.9,10.6,1.5c10.7,10.8,10.7,14.5-2.8,22.1c-20.3,11.4-41.3,11.9-61.8,0.8c-18.6-10.1-27.2-35.3-21.1-58.7
		c5.8-22.5,23.8-37.6,45.6-38.2c31.8-1,52.3,20.3,50.4,52.1c-0.3,5.8-3.4,7.8-8.6,7.9C802.6,96.2,759.9,96.1,751.2,96.2z
		 M792.9,76.1c-0.8-10.4-10.1-17.3-20.1-17.4c-9.1-0.1-19.2,7.4-20.8,17.1L792.9,76.1z"/>
	<path fill="#168AFB" d="M642.7,49.7c5.9-5.7,12.3-10.3,20.4-12c26.1-5.7,46.6,9,48.7,36.6c1.3,16.6,0.7,38.8,0.7,56.8
		c0,4-3.3,7.2-7.3,7.2h-14.1c-4,0-7.3-3.3-7.3-7.3c0-13.7,0.1-31.4,0-43.3c0-3.7-0.3-7.5-1.1-11.2c-1.8-8.9-6.8-13.9-14.6-14.9
		c-8.7-1.2-16.5,2.8-20.5,10.6c-2.3,4.5-3.2,9.3-3.1,14.3c0,11.9-0.1,30.6-0.2,44.6c0,4-3.3,7.2-7.3,7.2h-14.2c-4,0-7.3-3.3-7.3-7.3
		c0-23,0-61.8,0-84.8c0-4,3.3-7.3,7.3-7.3h4.1C638.5,39.1,639.2,39.1,642.7,49.7z"/>
	<path fill="#168AFB" d="M555.7,112.3h-40.3c13.3-15.5,31.3-36.5,44.2-50.9c1.2-1.3,1.8-3.1,1.8-4.8V46.3c0-4-3.3-7.3-7.3-7.3h-1.1
		c-0.6,0-1.1,0-1.8,0c-18.8-0.1-37.6,0-56.3,0c-2.6,0-4.8,0-6.6,0.1h-1.3c-4,0-7.3,3.3-7.3,7.3v2.6c0,1.5,0,3.2,0,5.1
		c0,0.6,0,1.2,0,1.8v1.6c0,4,3.3,7.3,7.3,7.3h0.3c1,0,2.2,0.1,3.5,0.1c10.7,0,33.7,0,33.7,0c-11.1,12.8-32.1,37.3-44.4,51
		c-1.2,1.3-1.9,3.1-1.9,4.9v10.3c0,4,3.3,7.3,7.3,7.3h0.3c0.5,0,1,0.1,1.6,0.1c4.9,0,9.7,0,14.6-0.1h35.1c5.5,0,11,0,16.5,0.1
		c0.7,0,1.3,0,1.9-0.1h0.1c4,0,7.3-3.3,7.3-7.3v-11.3C563,115.6,559.7,112.3,555.7,112.3z"/>
	<path fill="#168AFB" d="M831.7,76.7c0-9.6,0.2-19.2-0.1-28.9c-0.1-6.2,2.3-8.9,8.7-9c20.6-0.5,20.5-0.6,20.6,19.8
		c0,12,0,23.9,0.1,35.9c0.1,13.9,3.7,17.6,17.4,17.6c7.5,0,15,0.1,22.5,0c5.7-0.1,7.9,2.7,8.3,8.1c1.1,16.9,0.2,17.9-16.7,17.9
		c-8.9,0-17.8,0.2-26.7-0.2c-20.7-0.8-33.5-13.9-33.9-34.5C831.6,94.6,831.8,85.6,831.7,76.7C831.8,76.7,831.7,76.7,831.7,76.7z"/>
	<path fill="#168AFB" d="M1054.8,88.7c0,13.4-0.2,26.7,0.1,40.1c0.1,6.4-2.1,9.4-8.9,9.5c-18.8,0.2-18.8,0.4-18.8-18.5
		c0-23.4,0-46.9,0-70.3c0-9.4,1.1-10.4,10.6-10.5c17-0.1,17-0.1,17,16.7C1054.8,66.6,1054.8,77.7,1054.8,88.7z"/>
	<path fill="#168AFB" d="M587.5,30.3c-9-0.1-15.9-6.9-15.6-15.4c0.3-8.3,7.8-15.2,16.3-14.9c8.4,0.3,15.2,7.1,15.2,15.2
		C603.5,23.8,596.4,30.4,587.5,30.3z"/>
	<path fill="#168AFB" d="M1040.3,30.3c-9-0.4-15.7-7.4-15.2-15.8c0.5-8.4,8.1-15,16.7-14.5c8.6,0.5,15.3,7.9,14.8,16.4
		C1056.1,24.5,1048.9,30.7,1040.3,30.3z"/>
	<path fill="#168AFB" d="M440.4,127.2C427.6,139,413.1,143,397,139.5c-20.4-4.5-33.4-21.7-35.6-46c-2.5-28.9,14-52.4,40.1-56.5
		c12.6-1.9,24.3,0.5,34.4,8.7c3,2.4,4.5,4.2,4.5,4.2V47c0-4.4,3.6-7.9,7.9-7.9c4.7,0,8.4,0,11.3,0c4.4,0,7.9,3.5,7.9,7.9
		c-0.1,22.9,0,60.5,0.1,83.4c0,4.4-3.5,7.9-7.9,7.9c-3.3,0-7.4,0-11.4,0c-4.4,0-7.9-3.5-7.9-7.9V127.2z M414.5,115.4
		c14.9,0,25-11.1,24.9-27.1c-0.2-16.1-9.8-26.5-24.6-26.6c-15-0.1-25.1,10.7-25.2,26.9C389.4,104.8,399.2,115.4,414.5,115.4z"/>
	<path fill="#168AFB" d="M207.8,127.2c-12.8,11.8-27.3,15.9-43.4,12.3c-20.4-4.5-33.4-21.7-35.6-46c-2.5-28.9,14-52.4,40.1-56.5
		c12.6-1.9,24.3,0.5,34.4,8.7c3,2.4,4.5,4.2,4.5,4.2v-2.9c0-4.4,3.6-7.9,7.9-7.9c4.7,0,8.4,0,11.3,0c4.4,0,7.9,3.5,7.9,7.9
		c-0.1,22.9,0,60.5,0.1,83.4c0,4.4-3.5,7.9-7.9,7.9c-3.3,0-7.4,0-11.4,0c-4.4,0-7.9-3.5-7.9-7.9V127.2z M181.9,115.5
		c14.9,0,25-11.1,24.9-27.1c-0.2-16.1-9.8-26.5-24.6-26.6c-15-0.1-25.1,10.7-25.2,26.9C156.8,104.9,166.7,115.5,181.9,115.5z"/>
	<path fill="#168AFB" d="M594.6,138.2h-13.4c-4,0-7.3-3.3-7.3-7.3V46.3c0-4,3.3-7.3,7.3-7.3h13.4c4,0,7.3,3.3,7.3,7.3v84.6
		C601.9,134.9,598.6,138.2,594.6,138.2z"/>
	<path fill="#168AFB" d="M986.5,127.6c-5.9,5.7-12.3,10.3-20.4,12c-26.1,5.7-46.6-9-48.7-36.6c-1.3-16.6-0.7-38.8-0.7-56.8
		c0-4,3.3-7.2,7.3-7.2H938c4,0,7.3,3.3,7.3,7.3c0,13.7-0.1,31.4,0,43.3c0,3.7,0.3,7.5,1.1,11.2c1.8,8.9,6.8,13.9,14.6,14.9
		c8.7,1.2,16.5-2.8,20.5-10.6c2.3-4.5,3.2-9.3,3.1-14.3c0-11.9,0.1-30.6,0.2-44.6c0-4,3.3-7.2,7.3-7.2h14.2c4,0,7.3,3.3,7.3,7.3
		c0,23,0,61.8,0,84.8c0,4-3.3,7.3-7.3,7.3h-4.1C990.6,138.2,989.9,138.2,986.5,127.6z"/>
	<path fill="#168AFB" d="M1143,112.3h-40.3c13.3-15.5,31.3-36.5,44.2-50.9c1.2-1.3,1.8-3.1,1.8-4.8V46.3c0-4-3.3-7.3-7.3-7.3h-1.1
		c-0.6,0-1.1,0-1.8,0c-18.8-0.1-37.6,0-56.3,0c-2.6,0-4.8,0-6.6,0.1h-1.3c-4,0-7.3,3.3-7.3,7.3v2.6c0,1.5,0,3.2,0,5.1
		c0,0.6,0,1.2,0,1.8v1.6c0,4,3.3,7.3,7.3,7.3h0.3c1,0,2.2,0.1,3.5,0.1c10.7,0,33.7,0,33.7,0c-11.1,12.8-32.1,37.3-44.4,51
		c-1.2,1.3-1.9,3.1-1.9,4.9v10.3c0,4,3.3,7.3,7.3,7.3h0.3c0.5,0,1,0.1,1.6,0.1c4.9,0,9.7,0,14.6-0.1h35.1c5.5,0,11,0,16.5,0.1
		c0.7,0,1.3,0,1.9-0.1h0.1c4,0,7.3-3.3,7.3-7.3v-11.3C1150.3,115.5,1147.1,112.3,1143,112.3z"/>
</g>
</svg>
